<svg width="66" height="55" viewBox="0 0 56 45" fill="none" xmlns="http://www.w3.org/2000/svg">
<g clip-path="url(#clip0_1_404)">
<path d="M11.0741 29.3555C12.1157 29.3121 13.1701 29.345 14.2134 29.3465C15.7219 29.3486 17.2322 29.3354 18.7404 29.3557C18.5381 29.6103 18.3282 29.8653 18.1521 30.1385C17.7897 30.7012 17.5031 31.4282 17.3829 32.0841L12.6595 32.0896C12.3471 32.0894 11.3242 32.1322 11.0741 32.0719V29.3555Z" fill="#2F887C"/>
<path d="M37.2123 29.3323C38.1841 29.3341 39.1617 29.2922 40.1326 29.3351C40.1601 30.2526 40.1002 31.1772 40.1454 32.0926C39.0361 32.0652 37.9205 32.0864 36.8102 32.0857L30.0964 32.0956C29.5129 32.1003 28.9294 32.0948 28.3461 32.0789C28.1992 31.2505 27.7139 29.8978 27.061 29.3516C27.9603 29.361 28.8621 29.3422 29.7618 29.3424L37.2123 29.3323Z" fill="#2F887C"/>
<path d="M22.6196 29.3083C23.4918 29.2322 24.4428 29.5464 25.1193 30.0864C25.48 30.374 25.7798 30.7291 26.0015 31.1313C26.2231 31.5336 26.3623 31.9751 26.411 32.4307C26.4573 32.8791 26.4122 33.3321 26.2785 33.7631C26.1448 34.1941 25.9252 34.5942 25.6326 34.9399C24.9914 35.7005 24.1114 36.0858 23.1301 36.1785C22.2059 36.22 21.3837 36.0056 20.6383 35.447C19.9473 34.9292 19.427 34.1096 19.3147 33.2552C19.252 32.7909 19.2839 32.319 19.4083 31.8671C19.5328 31.4152 19.7474 30.9924 20.0395 30.6236C20.7099 29.7741 21.5686 29.4374 22.6196 29.3083Z" fill="#2F887C"/>
<path d="M49.1995 29.3306C50.1237 29.3299 50.9999 29.6266 51.6853 30.2528C52.3828 30.89 52.7752 31.7118 52.81 32.6498C52.8435 33.5534 52.5424 34.4611 51.9137 35.1275C51.2172 35.8652 50.34 36.2122 49.3284 36.2474C48.4078 36.2662 47.5136 35.9421 46.8236 35.3395C46.4916 35.0563 46.2198 34.7109 46.0239 34.3232C45.8279 33.9355 45.7117 33.5132 45.682 33.0808C45.6173 32.0991 45.8918 31.2011 46.5586 30.4619C47.2607 29.6839 48.1734 29.3881 49.1995 29.3306Z" fill="#2F887C"/>
<path d="M42.2229 16.2958C42.7759 16.3147 43.3368 16.2957 43.8905 16.2954L47.0016 16.2961C47.6753 16.2946 48.3804 16.2484 49.0492 16.3181C49.2499 16.4933 49.4056 16.7516 49.5609 16.9665C49.862 17.3789 50.1556 17.7966 50.4416 18.2193L53.9289 23.2928C54.1939 23.6827 54.4615 24.0708 54.7315 24.4573C54.9255 24.7392 55.1191 25.0689 55.3696 25.3057V32.0584C54.9954 32.04 54.6188 32.0593 54.2433 32.043C54.0634 31.4472 53.9581 31.0235 53.6351 30.4656C52.9582 29.2964 51.79 28.4811 50.4838 28.1352C49.148 27.7817 47.7778 28.0241 46.5932 28.7052C45.2494 29.4773 44.59 30.6571 44.2026 32.0954C43.5401 32.1065 42.8759 32.095 42.2134 32.0883C42.243 31.4656 42.2235 30.8343 42.2238 30.211L42.2229 26.7609V16.2958ZM44.3172 18.3695C44.2861 18.9873 44.2995 19.6102 44.2991 20.2288C44.2984 21.4489 44.3101 22.6701 44.2928 23.8901L49.3278 23.8952H50.8636C51.1708 23.8955 51.4876 23.8828 51.7932 23.9079C51.79 23.8651 51.7818 23.842 51.7582 23.8059C51.6131 23.584 51.4433 23.3741 51.2914 23.1558L49.7301 20.9292C49.3472 20.3718 48.9602 19.8173 48.569 19.2656C48.3664 18.9769 48.1697 18.6553 47.9392 18.3888C47.5894 18.3612 47.2332 18.3716 46.8822 18.3703C46.3272 18.3673 45.7722 18.3675 45.2172 18.371C44.9185 18.3732 44.615 18.3876 44.3172 18.3695Z" fill="#2F887C"/>
<path d="M11.0741 8.85114C12.0461 8.89558 13.0354 8.86052 14.0095 8.86069L19.5922 8.86093L32.9876 8.86445C35.3687 8.8636 37.7529 8.83664 40.1335 8.86197L40.1409 21.4732L40.142 25.3637C40.142 26.0016 40.1084 26.6566 40.1452 27.2926C39.4793 27.2749 38.8109 27.2849 38.1446 27.2828L33.8019 27.277L19.4921 27.2755L14.0769 27.2708L12.0707 27.2755C11.7418 27.2755 11.4015 27.2939 11.0741 27.2704V8.85114ZM28.5398 10.9453C27.7912 11.0086 27.072 11.2631 26.4527 11.6837C25.8854 12.0622 25.1614 12.8224 24.6589 13.3068L22.0715 15.788C21.2938 16.5329 20.5006 17.2613 19.7268 18.0103C19.4164 18.3106 19.0758 18.6038 18.7936 18.9298C18.1637 19.6646 17.8528 20.6156 17.9286 21.5758C18.0137 22.6345 18.5477 23.5516 19.364 24.2275C19.787 24.5792 20.2761 24.8449 20.8032 25.0093C21.3303 25.1737 21.8851 25.2335 22.4358 25.1854C23.0814 25.1288 23.7786 24.9035 24.316 24.5403C24.8238 24.1972 25.2287 23.735 25.6705 23.3175C26.6998 22.3448 27.7034 21.3482 28.7266 20.3698C29.4447 19.6832 30.1955 19.0277 30.9219 18.3494C31.3288 17.9694 31.7238 17.6112 32.0841 17.1856C32.7471 16.4028 33.1403 15.5835 33.0466 14.5414C32.9493 13.457 32.4336 12.5188 31.5853 11.8277C30.7147 11.1184 29.6497 10.8683 28.5398 10.9453Z" fill="#FFC737"/>
<path d="M28.6758 11.8433C29.3119 11.8321 29.9002 11.936 30.4675 12.2316C30.8399 12.4246 31.17 12.6883 31.439 13.0077C31.708 13.3271 31.9105 13.6959 32.0349 14.0928C32.259 14.8247 32.1715 15.577 31.8013 16.2455C31.6799 16.4647 31.5437 16.6544 31.3743 16.8393C31.0626 17.1795 28.3667 19.7277 28.1904 19.7786C27.97 19.6956 27.7457 19.4211 27.5759 19.2589C27.3893 19.0834 27.1861 18.9236 26.9959 18.7516L24.8554 16.833C24.3807 16.4151 23.8976 16.0066 23.4472 15.5624C23.6849 15.3693 23.9008 15.1284 24.1252 14.9178L25.8222 13.3183C26.1373 13.0236 26.4505 12.7038 26.8168 12.4716C27.3744 12.1134 28.0131 11.8976 28.6758 11.8433Z" fill="#2F887C"/>
<path d="M6.64417 20.3356C7.68577 20.2922 8.7402 20.3251 9.78342 20.3266C11.292 20.3287 12.8022 20.3155 14.3105 20.3358C14.1081 20.5904 13.8982 20.8454 13.7222 21.1186C13.3598 21.6813 13.0731 22.4083 12.953 23.0642L8.22954 23.0697C7.91718 23.0695 6.89431 23.1123 6.64417 23.052V20.3356Z" fill="#FFC737"/>
<path d="M0 24.7087C1.8055 24.6744 3.63326 24.7004 5.44157 24.7016C8.05648 24.7033 10.6743 24.6928 13.2888 24.7089C12.938 24.91 12.5741 25.1115 12.269 25.3273C11.6408 25.7718 11.2823 26.362 11.074 26.8801L2.74808 26.8686C2.20663 26.8685 0.433602 26.9022 0 26.8546V24.7087Z" fill="#FFC737"/>
</g>
<defs>
<clipPath id="clip0_1_404">
<rect width="55.3699" height="43.7808" fill="white" transform="translate(0 0.611816)"/>
</clipPath>
</defs>
</svg>
