<svg width="188" height="54" viewBox="0 0 188 54" fill="none" xmlns="http://www.w3.org/2000/svg">
<path d="M76.5242 22.0289C75.0575 20.9696 73.6722 20.4399 72.3684 20.4399C71.5536 20.4399 70.9017 20.6572 70.4128 21.0918C69.9238 21.5264 69.6794 22.0425 69.6794 22.64C69.6794 23.2105 69.9374 23.6994 70.4535 24.1068C70.9967 24.5142 71.8388 24.9896 72.9796 25.5328C74.1204 26.0489 75.0439 26.5242 75.7501 26.9588C77.4342 27.991 78.2762 29.4442 78.2762 31.3183C78.2762 32.432 77.9638 33.4506 77.3391 34.3741C76.7415 35.2976 75.8859 36.031 74.7723 36.5742C73.6586 37.1175 72.2598 37.3891 70.5757 37.3891C68.8917 37.3891 67.0582 36.9681 65.0754 36.126L65.6865 32.2962L66.1347 32.011C66.9496 32.7172 67.8324 33.2604 68.783 33.6407C69.7609 34.021 70.6572 34.2111 71.4721 34.2111C72.3141 34.2111 72.9796 33.9938 73.4685 33.5592C73.9574 33.1246 74.2019 32.595 74.2019 31.9702C74.2019 31.3455 73.9303 30.8294 73.387 30.422C72.8438 30.0146 71.9882 29.5528 70.8202 29.0367C69.6794 28.4935 68.7694 28.0046 68.0904 27.57C66.4335 26.565 65.6051 25.1254 65.6051 23.2512C65.6051 22.1104 65.9038 21.0918 66.5014 20.1955C67.1261 19.2719 67.9817 18.5386 69.0682 17.9953C70.1819 17.4521 71.4992 17.194 73.0203 17.2212C74.5414 17.2484 76.1304 17.5879 77.7873 18.2398L77.1354 21.7844L76.5242 22.0289ZM86.1801 32.9888H86.3838L88.8691 25.4513L89.3988 22.8845H92.9027L88.2987 36.126C87.6468 38.0546 86.7505 39.5213 85.6096 40.5263C84.4688 41.5585 82.8527 42.3733 80.7612 42.9709L80.476 42.9302C79.7426 42.2783 79.1451 41.4634 78.6833 40.4856L78.8055 40.0781C81.1686 39.6707 83.0564 38.6793 84.4688 37.1039L79.2537 23.0067L83.1651 22.803L83.6132 25.0846L86.1801 32.9888ZM103.47 28.2626C103.47 26.7687 102.832 26.0217 101.556 26.0217C100.632 26.0217 99.6542 26.4563 98.622 27.3255V30.8702L98.8257 37.1039H94.7514L94.9551 31.2369L94.7921 23.1697L98.6627 22.8438V24.9217H98.8665C100.034 23.8895 101.257 23.1561 102.533 22.7215C104.082 22.7215 105.25 23.0746 106.037 23.7809C106.852 24.4871 107.246 25.4921 107.219 26.7959L107.137 30.8702L107.3 37.1039H103.226L103.47 28.2626ZM123.636 20.8881L119.969 20.6844H118.706L118.584 30.8702L118.747 37.1039H114.631L114.835 31.2369L114.672 20.6844H113.45L109.702 20.8881L109.416 20.5214L109.702 17.4657H123.636L123.88 17.7916L123.636 20.8881ZM133.951 22.8845C134.141 22.9117 134.399 22.9388 134.725 22.966V26.6736L134.317 26.8366C133.964 26.7008 133.584 26.6329 133.177 26.6329C132.009 26.6329 130.936 27.3798 129.958 28.8738V30.8702L130.202 37.1039H126.128L126.332 31.2369L126.169 23.1697L130.039 22.8438L129.999 25.655H130.243C131.221 23.8352 132.457 22.9117 133.951 22.8845ZM141.901 22.64C143.721 22.64 145.079 22.9932 145.976 23.6994C146.872 24.4056 147.32 25.3834 147.32 26.6329C147.32 26.986 147.252 28.1404 147.117 30.0961C147.117 30.0961 147.076 31.2097 146.994 33.437C146.994 33.7901 147.035 34.0346 147.117 34.1704C147.198 34.279 147.361 34.3333 147.605 34.3333C147.85 34.3333 148.135 34.2926 148.461 34.2111L148.787 34.4556L148.38 36.5742C147.728 36.9817 146.994 37.2397 146.179 37.3483C144.876 37.2397 144.088 36.4927 143.816 35.1075H143.613C142.58 36.194 141.535 36.9545 140.475 37.3891C139.009 37.3619 137.854 36.9681 137.012 36.2075C136.17 35.447 135.749 34.4284 135.749 33.1518C135.749 31.169 136.795 29.9738 138.886 29.5664L143.572 28.7108V27.4477C143.572 26.1168 142.947 25.4513 141.698 25.4513C140.448 25.4513 138.981 26.0353 137.297 27.2033L136.971 27.0403L136.523 24.3513C138.316 23.2105 140.109 22.64 141.901 22.64ZM140.312 31.4406C139.688 31.5764 139.375 31.9567 139.375 32.5814C139.375 33.8037 139.905 34.4148 140.964 34.4148C141.752 34.4148 142.594 33.9395 143.49 32.9888L143.572 30.7072L140.312 31.4406ZM157.199 22.64C158.611 22.64 159.86 22.8981 160.947 23.4142L160.295 26.6329L159.928 26.7959C158.896 26.2254 157.945 25.9402 157.076 25.9402C156.207 25.9402 155.514 26.2798 154.998 26.9588C154.482 27.6107 154.224 28.6021 154.224 29.9331C154.224 31.264 154.496 32.3098 155.039 33.0703C155.61 33.8308 156.37 34.2111 157.321 34.2111C158.299 34.2111 159.344 33.9531 160.458 33.437L160.743 33.6815L160.377 36.8187C159.154 37.1989 157.891 37.4027 156.587 37.4298C154.632 37.4298 153.111 36.7915 152.024 35.5149C150.938 34.2383 150.394 32.4456 150.394 30.1368C150.394 27.8009 150.992 25.9674 152.187 24.6365C153.382 23.3055 155.053 22.64 157.199 22.64ZM167.236 37.1039H163.202L163.406 31.1961L163.243 15.9989L167.277 15.673L167.032 30.8702L167.236 37.1039ZM171.147 29.3219C172.152 30.8973 173.795 33.2604 176.077 36.4112V36.8594C175.398 36.9952 174.135 37.1854 172.288 37.4298L171.88 37.2261C169.979 34.5371 168.431 32.0246 167.236 29.6886V29.4034L170.78 24.392L171.514 22.8845H175.792L171.147 29.3219Z" fill="#131721"/>
<g clip-path="url(#clip0_108_26252)">
<path d="M11.0741 33.8555C12.1157 33.8121 13.1701 33.845 14.2134 33.8465C15.7219 33.8486 17.2322 33.8354 18.7404 33.8557C18.5381 34.1103 18.3282 34.3653 18.1521 34.6385C17.7897 35.2012 17.5031 35.9282 17.3829 36.5841L12.6595 36.5896C12.3471 36.5894 11.3242 36.6322 11.0741 36.5719V33.8555Z" fill="#2F887C"/>
<path d="M37.2123 33.8323C38.1841 33.8341 39.1617 33.7922 40.1326 33.8351C40.1601 34.7526 40.1002 35.6772 40.1454 36.5926C39.0361 36.5652 37.9205 36.5864 36.8102 36.5857L30.0964 36.5956C29.5129 36.6003 28.9294 36.5948 28.3461 36.5789C28.1992 35.7505 27.7139 34.3978 27.061 33.8516C27.9603 33.861 28.8621 33.8422 29.7618 33.8424L37.2123 33.8323Z" fill="#2F887C"/>
<path d="M22.6196 33.8083C23.4918 33.7322 24.4428 34.0464 25.1193 34.5864C25.48 34.874 25.7798 35.2291 26.0015 35.6313C26.2231 36.0336 26.3623 36.4751 26.411 36.9307C26.4573 37.3791 26.4122 37.8321 26.2785 38.2631C26.1448 38.6941 25.9252 39.0942 25.6326 39.4399C24.9914 40.2005 24.1114 40.5858 23.1301 40.6785C22.2059 40.72 21.3837 40.5056 20.6383 39.947C19.9473 39.4292 19.427 38.6096 19.3147 37.7552C19.252 37.2909 19.2839 36.819 19.4083 36.3671C19.5328 35.9152 19.7474 35.4924 20.0395 35.1236C20.7099 34.2741 21.5686 33.9374 22.6196 33.8083Z" fill="#2F887C"/>
<path d="M49.1996 33.8306C50.1238 33.8299 50.9999 34.1266 51.6854 34.7528C52.3829 35.39 52.7752 36.2118 52.8101 37.1498C52.8436 38.0534 52.5425 38.9611 51.9138 39.6275C51.2173 40.3652 50.34 40.7122 49.3285 40.7474C48.4078 40.7662 47.5137 40.4421 46.8236 39.8395C46.4917 39.5563 46.2199 39.2109 46.0239 38.8232C45.828 38.4355 45.7118 38.0132 45.6821 37.5808C45.6174 36.5991 45.8919 35.7011 46.5587 34.9619C47.2607 34.1839 48.1735 33.8881 49.1996 33.8306Z" fill="#2F887C"/>
<path d="M42.2229 20.7958C42.7759 20.8147 43.3368 20.7957 43.8905 20.7954L47.0016 20.7961C47.6753 20.7946 48.3804 20.7484 49.0492 20.8181C49.2499 20.9933 49.4056 21.2516 49.5609 21.4665C49.862 21.8789 50.1556 22.2966 50.4416 22.7193L53.9289 27.7928C54.1939 28.1827 54.4615 28.5708 54.7315 28.9573C54.9255 29.2392 55.1191 29.5689 55.3696 29.8057V36.5584C54.9954 36.54 54.6188 36.5593 54.2433 36.543C54.0634 35.9472 53.9581 35.5235 53.6351 34.9656C52.9582 33.7964 51.79 32.9811 50.4838 32.6352C49.148 32.2817 47.7778 32.5241 46.5932 33.2052C45.2494 33.9773 44.59 35.1571 44.2026 36.5954C43.5401 36.6065 42.8759 36.595 42.2134 36.5883C42.243 35.9656 42.2235 35.3343 42.2238 34.711L42.2229 31.2609V20.7958ZM44.3172 22.8695C44.2861 23.4873 44.2995 24.1102 44.2991 24.7288C44.2984 25.9489 44.3101 27.1701 44.2928 28.3901L49.3278 28.3952H50.8636C51.1708 28.3955 51.4876 28.3828 51.7932 28.4079C51.79 28.3651 51.7818 28.342 51.7582 28.3059C51.6131 28.084 51.4433 27.8741 51.2914 27.6558L49.7301 25.4292C49.3472 24.8718 48.9602 24.3173 48.569 23.7656C48.3664 23.4769 48.1697 23.1553 47.9392 22.8888C47.5894 22.8612 47.2332 22.8716 46.8822 22.8703C46.3272 22.8673 45.7722 22.8675 45.2172 22.871C44.9185 22.8732 44.615 22.8876 44.3172 22.8695Z" fill="#2F887C"/>
<path d="M11.0741 13.3511C12.0461 13.3956 13.0354 13.3605 14.0095 13.3607L19.5922 13.3609L32.9876 13.3645C35.3687 13.3636 37.7529 13.3366 40.1335 13.362L40.1409 25.9732L40.142 29.8637C40.142 30.5016 40.1084 31.1566 40.1452 31.7926C39.4793 31.7749 38.8109 31.7849 38.1446 31.7828L33.8019 31.777L19.4921 31.7755L14.0769 31.7708L12.0707 31.7755C11.7418 31.7755 11.4015 31.7939 11.0741 31.7704V13.3511ZM28.5398 15.4453C27.7912 15.5086 27.072 15.7631 26.4527 16.1837C25.8854 16.5622 25.1614 17.3224 24.6589 17.8068L22.0715 20.288C21.2938 21.0329 20.5006 21.7613 19.7268 22.5103C19.4164 22.8106 19.0758 23.1038 18.7936 23.4298C18.1637 24.1646 17.8528 25.1156 17.9286 26.0758C18.0137 27.1345 18.5477 28.0516 19.364 28.7275C19.787 29.0792 20.2761 29.3449 20.8032 29.5093C21.3303 29.6737 21.8851 29.7335 22.4358 29.6854C23.0814 29.6288 23.7786 29.4035 24.316 29.0403C24.8238 28.6972 25.2287 28.235 25.6705 27.8175C26.6998 26.8448 27.7034 25.8482 28.7266 24.8698C29.4447 24.1832 30.1955 23.5277 30.9219 22.8494C31.3288 22.4694 31.7238 22.1112 32.0841 21.6856C32.7471 20.9028 33.1403 20.0835 33.0466 19.0414C32.9493 17.957 32.4336 17.0188 31.5853 16.3277C30.7147 15.6184 29.6497 15.3683 28.5398 15.4453Z" fill="#FFC737"/>
<path d="M28.6758 16.3433C29.3119 16.3321 29.9002 16.436 30.4674 16.7316C30.8398 16.9246 31.17 17.1883 31.4389 17.5077C31.7079 17.8271 31.9104 18.1959 32.0348 18.5928C32.259 19.3247 32.1714 20.077 31.8012 20.7455C31.6799 20.9647 31.5436 21.1544 31.3742 21.3393C31.0626 21.6795 28.3666 24.2277 28.1903 24.2786C27.97 24.1956 27.7456 23.9211 27.5758 23.7589C27.3892 23.5834 27.1861 23.4236 26.9958 23.2516L24.8554 21.333C24.3807 20.9151 23.8975 20.5066 23.4471 20.0624C23.6848 19.8693 23.9008 19.6284 24.1252 19.4178L25.8221 17.8183C26.1372 17.5236 26.4504 17.2038 26.8167 16.9716C27.3743 16.6134 28.0131 16.3976 28.6758 16.3433Z" fill="#2F887C"/>
<path d="M6.64417 24.8356C7.68577 24.7922 8.7402 24.8251 9.78342 24.8266C11.292 24.8287 12.8022 24.8155 14.3105 24.8358C14.1081 25.0904 13.8982 25.3454 13.7222 25.6186C13.3598 26.1813 13.0731 26.9083 12.953 27.5642L8.22954 27.5697C7.91718 27.5695 6.89431 27.6123 6.64417 27.552V24.8356Z" fill="#FFC737"/>
<path d="M0 29.2087C1.8055 29.1744 3.63326 29.2004 5.44157 29.2016C8.05648 29.2033 10.6743 29.1928 13.2888 29.2089C12.938 29.41 12.5741 29.6115 12.269 29.8273C11.6408 30.2718 11.2823 30.862 11.074 31.3801L2.74808 31.3686C2.20663 31.3685 0.433602 31.4022 0 31.3546V29.2087Z" fill="#FFC737"/>
</g>
<defs>
<clipPath id="clip0_108_26252">
<rect width="55.3699" height="43.7808" fill="white" transform="translate(0 5.11182)"/>
</clipPath>
</defs>
</svg>
